<?xml version="1.0" encoding="UTF-8"?>
<svg width="339px" height="143px" viewBox="0 0 339 143" version="1.1" xmlns="http://www.w3.org/2000/svg" xmlns:xlink="http://www.w3.org/1999/xlink">
    <title>nocna-mora-logo-alt</title>
    <g id="nocna-mora-logo-alt" stroke="none" stroke-width="1" fill="none" fill-rule="evenodd">
        <g id="Group">
            <rect id="Rectangle" fill="#A81822" x="0" y="0" width="339" height="74"></rect>
            <rect id="Rectangle-Copy" fill="#000000" x="0" y="74" width="339" height="69"></rect>
            <g id="Noćna" transform="translate(17.041, 0.408)" fill="#FFFFFF" fill-rule="nonzero">
                <path d="M40.541,12.709 L29.323,12.709 L29.323,25.773 C29.323,34.861 29.749,43.452 30.388,49.842 L30.246,49.842 C28.187,44.304 25.205,37.275 22.72,32.376 L13.348,12.709 L0,12.709 L0,67.592 L11.218,67.592 L11.218,54.102 C11.218,44.304 10.934,35.926 10.579,29.536 L10.863,29.536 C12.851,35.216 15.975,42.387 18.531,47.641 L28.116,67.592 L40.541,67.592 L40.541,12.709 Z" id="Path"></path>
                <path d="M89.184,11.928 C74.416,11.928 65.896,24.779 65.896,40.257 C65.896,55.309 73.28,68.373 88.403,68.373 C102.248,68.373 111.549,58.504 111.549,39.405 C111.549,26.057 105.159,11.928 89.184,11.928 Z M88.829,22.223 C95.219,22.223 98.414,30.246 98.414,39.831 C98.414,50.552 95.148,58.078 88.829,58.078 C82.51,58.078 78.96,50.552 79.031,40.044 C79.031,30.601 82.155,22.223 88.829,22.223 Z" id="Shape"></path>
                <path d="M152.098,9.798 L161.612,9.798 L171.481,0 L158.772,0 L152.098,9.798 Z M172.12,14.058 C170.416,13.135 166.511,11.999 161.186,11.999 C147.057,11.999 134.277,21.371 134.277,40.967 C134.277,56.161 142.513,68.302 159.908,68.302 C165.304,68.302 169.564,67.308 171.481,66.456 L169.919,56.374 C168.002,57.084 164.807,57.652 161.967,57.652 C153.092,57.652 147.483,51.688 147.483,40.257 C147.483,27.974 154.086,22.507 161.967,22.507 C165.446,22.507 167.931,23.288 169.919,24.14 L172.12,14.058 Z" id="Shape"></path>
                <path d="M237.022,12.709 L225.804,12.709 L225.804,25.773 C225.804,34.861 226.23,43.452 226.869,49.842 L226.727,49.842 C224.668,44.304 221.686,37.275 219.201,32.376 L209.829,12.709 L196.481,12.709 L196.481,67.592 L207.699,67.592 L207.699,54.102 C207.699,44.304 207.415,35.926 207.06,29.536 L207.344,29.536 C209.332,35.216 212.456,42.387 215.012,47.641 L224.597,67.592 L237.022,67.592 L237.022,12.709 Z" id="Path"></path>
                <path d="M291.203,12.709 L275.37,12.709 L260.886,67.592 L273.524,67.592 L276.506,54.812 L289.144,54.812 L292.339,67.592 L305.261,67.592 L291.203,12.709 Z M277.997,45.369 L280.482,34.364 C281.121,31.24 282.044,26.199 282.754,22.862 L282.896,22.862 C283.606,26.199 284.529,31.098 285.239,34.364 L287.653,45.369 L277.997,45.369 Z" id="Shape"></path>
            </g>
            <g id="mora" transform="translate(18.168, 86.256)" fill="#FFFFFF" fill-rule="nonzero">
                <path d="M48.312,0.726 L34.32,0.726 L29.964,17.16 C28.446,23.1 26.994,29.634 25.938,35.508 L25.674,35.508 C24.684,29.502 23.232,23.298 21.78,17.226 L17.688,0.726 L3.498,0.726 L0,51.744 L10.428,51.744 L11.286,33.594 C11.55,28.116 11.88,20.922 12.078,14.586 L12.276,14.586 C13.332,20.856 14.784,27.786 16.038,32.67 L20.592,50.82 L29.37,50.82 L34.386,32.538 C35.772,27.654 37.554,20.724 38.874,14.586 L39.072,14.586 C39.006,21.318 39.27,28.116 39.534,33.528 L40.26,51.744 L51.216,51.744 L48.312,0.726 Z" id="Path"></path>
                <path d="M117.509366,0 C103.781366,0 95.861366,11.946 95.861366,26.334 C95.861366,40.326 102.725366,52.47 116.783366,52.47 C129.653366,52.47 138.299366,43.296 138.299366,25.542 C138.299366,13.134 132.359366,0 117.509366,0 Z M117.179366,9.57 C123.119366,9.57 126.089366,17.028 126.089366,25.938 C126.089366,35.904 123.053366,42.9 117.179366,42.9 C111.305366,42.9 108.005366,35.904 108.071366,26.136 C108.071366,17.358 110.975366,9.57 117.179366,9.57 Z" id="Shape"></path>
                <path d="M209.806732,27.654 C214.492732,25.806 218.254732,21.12 218.254732,15.114 C218.254732,1.122 204.922732,0.396 198.124732,0.396 C192.844732,0.396 187.894732,0.858 184.330732,1.452 L184.330732,51.744 L195.880732,51.744 L195.880732,31.878 L198.124732,31.878 C202.018732,31.878 203.800732,33.528 204.922732,39.732 C206.044732,45.738 207.364732,50.292 208.024732,51.744 L220.036732,51.744 C219.046732,49.764 217.594732,42.966 216.274732,37.488 C215.086732,32.604 213.304732,29.304 209.806732,27.918 L209.806732,27.654 Z M195.880732,23.298 L195.880732,9.504 C196.540732,9.306 197.794732,9.174 199.642732,9.174 C202.348732,9.174 206.638732,10.296 206.638732,16.104 C206.638732,20.262 203.800732,23.298 198.916732,23.298 L195.880732,23.298 Z" id="Shape"></path>
                <path d="M289.432098,0.726 L274.714098,0.726 L261.250098,51.744 L272.998098,51.744 L275.770098,39.864 L287.518098,39.864 L290.488098,51.744 L302.500098,51.744 L289.432098,0.726 Z M277.156098,31.086 L279.466098,20.856 C280.060098,17.952 280.918098,13.266 281.578098,10.164 L281.710098,10.164 C282.370098,13.266 283.228098,17.82 283.888098,20.856 L286.132098,31.086 L277.156098,31.086 Z" id="Shape"></path>
            </g>
        </g>
    </g>
</svg>